<svg viewBox="0 0 280 80" xmlns="http://www.w3.org/2000/svg">
  <!-- 도트 매트릭스 심볼 -->
  <g transform="translate(8, 8)">
    <!-- 행4 (하단) -->
    <circle cx="0"  cy="48" r="4.5" fill="#7B2FBE" opacity="0.15"/>
    <circle cx="16" cy="48" r="4.5" fill="#7B2FBE" opacity="0.25"/>
    <circle cx="32" cy="48" r="4.5" fill="#7B2FBE" opacity="0.35"/>
    <circle cx="48" cy="48" r="4.5" fill="#7B2FBE" opacity="0.5"/>
    <!-- 행3 -->
    <circle cx="0"  cy="32" r="4.5" fill="#7B2FBE" opacity="0.25"/>
    <circle cx="16" cy="32" r="4.5" fill="#7B2FBE" opacity="0.4"/>
    <circle cx="32" cy="32" r="4.5" fill="#7B2FBE" opacity="0.6"/>
    <circle cx="48" cy="32" r="4.5" fill="#7B2FBE" opacity="0.8"/>
    <!-- 행2 -->
    <circle cx="0"  cy="16" r="4.5" fill="#7B2FBE" opacity="0.35"/>
    <circle cx="16" cy="16" r="4.5" fill="#7B2FBE" opacity="0.6"/>
    <circle cx="32" cy="16" r="4.5" fill="#7B2FBE" opacity="0.85"/>
    <circle cx="48" cy="16" r="4.5" fill="#7B2FBE"/>
    <!-- 행1 (상단) -->
    <circle cx="0"  cy="0" r="4.5" fill="#7B2FBE" opacity="0.4"/>
    <circle cx="16" cy="0" r="4.5" fill="#7B2FBE" opacity="0.65"/>
    <circle cx="32" cy="0" r="4.5" fill="#7B2FBE"/>
    <!-- 타겟 도트 (적중) -->
    <circle cx="48" cy="0" r="6" fill="#00B37D"/>
    <circle cx="48" cy="0" r="10" fill="#00B37D" opacity="0.15"/>
  </g>
  <!-- 텍스트 -->
  <text x="76" y="46" font-family="Arial Black, sans-serif" font-size="28" font-weight="900" fill="#1A1A1A" letter-spacing="0.5">PICK<tspan fill="#7B2FBE">TER</tspan></text>
  <text x="77" y="62" font-family="sans-serif" font-size="7" fill="#bbb" letter-spacing="2.5">PREDICT · RANK · DOMINATE</text>
  <line x1="77" y1="67" x2="272" y2="67" stroke="#7B2FBE" stroke-width="1" opacity="0.3"/>
</svg>
