<svg viewBox="0 0 280 80" xmlns="http://www.w3.org/2000/svg" style="background:#0D0520">
  <!-- 도트 매트릭스 심볼 (다크) -->
  <g transform="translate(8, 8)">
    <!-- 행4 (하단) -->
    <circle cx="0"  cy="48" r="4.5" fill="#B57BFF" opacity="0.1"/>
    <circle cx="16" cy="48" r="4.5" fill="#B57BFF" opacity="0.2"/>
    <circle cx="32" cy="48" r="4.5" fill="#B57BFF" opacity="0.35"/>
    <circle cx="48" cy="48" r="4.5" fill="#B57BFF" opacity="0.5"/>
    <!-- 행3 -->
    <circle cx="0"  cy="32" r="4.5" fill="#B57BFF" opacity="0.2"/>
    <circle cx="16" cy="32" r="4.5" fill="#B57BFF" opacity="0.4"/>
    <circle cx="32" cy="32" r="4.5" fill="#B57BFF" opacity="0.65"/>
    <circle cx="48" cy="32" r="4.5" fill="#B57BFF" opacity="0.85"/>
    <!-- 행2 -->
    <circle cx="0"  cy="16" r="4.5" fill="#B57BFF" opacity="0.3"/>
    <circle cx="16" cy="16" r="4.5" fill="#B57BFF" opacity="0.55"/>
    <circle cx="32" cy="16" r="4.5" fill="#B57BFF" opacity="0.85"/>
    <circle cx="48" cy="16" r="4.5" fill="#B57BFF"/>
    <!-- 행1 (상단) -->
    <circle cx="0"  cy="0" r="4.5" fill="#B57BFF" opacity="0.4"/>
    <circle cx="16" cy="0" r="4.5" fill="#B57BFF" opacity="0.7"/>
    <circle cx="32" cy="0" r="4.5" fill="#B57BFF"/>
    <!-- 타겟 도트 (적중) -->
    <circle cx="48" cy="0" r="6" fill="#00B37D"/>
    <circle cx="48" cy="0" r="10" fill="#00B37D" opacity="0.2"/>
  </g>
  <!-- 텍스트 -->
  <text x="76" y="46" font-family="Arial Black, sans-serif" font-size="28" font-weight="900" fill="white" letter-spacing="0.5">PICK<tspan fill="#B57BFF">TER</tspan></text>
  <text x="77" y="62" font-family="sans-serif" font-size="7" fill="#444" letter-spacing="2.5">PREDICT · RANK · DOMINATE</text>
  <line x1="77" y1="67" x2="272" y2="67" stroke="#7B2FBE" stroke-width="1" opacity="0.5"/>
</svg>
